<svg width="148" height="28" viewBox="0 0 148 28" fill="none" xmlns="http://www.w3.org/2000/svg">
<rect width="148" height="28" fill="#FFA401"/>
<path d="M37.5845 20.12C36.8911 20.12 36.1645 19.9933 35.4045 19.74C34.6445 19.4867 34.0111 19.06 33.5045 18.46C33.3978 18.3267 33.3511 18.1867 33.3645 18.04C33.3911 17.88 33.4778 17.7467 33.6245 17.64C33.7578 17.5467 33.8978 17.5133 34.0445 17.54C34.2045 17.5667 34.3311 17.64 34.4245 17.76C34.8111 18.2133 35.2778 18.5333 35.8245 18.72C36.3845 18.8933 36.9911 18.98 37.6445 18.98C38.7645 18.98 39.5578 18.78 40.0245 18.38C40.4911 17.98 40.7245 17.5133 40.7245 16.98C40.7245 16.46 40.4711 16.0333 39.9645 15.7C39.4711 15.3533 38.7045 15.1067 37.6645 14.96C36.3311 14.7733 35.3445 14.4133 34.7045 13.88C34.0645 13.3467 33.7445 12.7267 33.7445 12.02C33.7445 11.3533 33.9111 10.7933 34.2445 10.34C34.5778 9.87333 35.0311 9.52667 35.6045 9.3C36.1911 9.06 36.8578 8.94 37.6045 8.94C38.5111 8.94 39.2778 9.10667 39.9045 9.44C40.5311 9.76 41.0378 10.1933 41.4245 10.74C41.5311 10.8733 41.5645 11.02 41.5245 11.18C41.4978 11.3267 41.3978 11.4467 41.2245 11.54C41.0911 11.6067 40.9511 11.6267 40.8045 11.6C40.6578 11.5733 40.5311 11.4933 40.4245 11.36C40.0911 10.9333 39.6845 10.6133 39.2045 10.4C38.7378 10.1733 38.1911 10.06 37.5645 10.06C36.7245 10.06 36.0711 10.24 35.6045 10.6C35.1378 10.96 34.9045 11.3933 34.9045 11.9C34.9045 12.2467 34.9978 12.5533 35.1845 12.82C35.3845 13.0733 35.7045 13.2933 36.1445 13.48C36.5845 13.6533 37.1711 13.7933 37.9045 13.9C38.9045 14.0333 39.6911 14.26 40.2645 14.58C40.8511 14.9 41.2645 15.2733 41.5045 15.7C41.7578 16.1133 41.8845 16.56 41.8845 17.04C41.8845 17.6667 41.6845 18.2133 41.2845 18.68C40.8845 19.1467 40.3578 19.5067 39.7045 19.76C39.0511 20 38.3445 20.12 37.5845 20.12ZM49.5871 20.12C48.5204 20.12 47.5604 19.88 46.7071 19.4C45.8671 18.9067 45.2004 18.24 44.7071 17.4C44.2271 16.5467 43.9871 15.5933 43.9871 14.54C43.9871 13.4733 44.2271 12.52 44.7071 11.68C45.2004 10.8267 45.8671 10.16 46.7071 9.68C47.5604 9.18667 48.5204 8.94 49.5871 8.94C50.6538 8.94 51.6071 9.18667 52.4471 9.68C53.2871 10.16 53.9471 10.8267 54.4271 11.68C54.9204 12.52 55.1671 13.4733 55.1671 14.54L54.6671 15.34C54.6671 16.2467 54.4404 17.06 53.9871 17.78C53.5471 18.5 52.9471 19.0733 52.1871 19.5C51.4271 19.9133 50.5604 20.12 49.5871 20.12ZM49.5871 19C50.4271 19 51.1738 18.8067 51.8271 18.42C52.4938 18.02 53.0138 17.4867 53.3871 16.82C53.7738 16.14 53.9671 15.38 53.9671 14.54C53.9671 13.6867 53.7738 12.9267 53.3871 12.26C53.0138 11.58 52.4938 11.0467 51.8271 10.66C51.1738 10.26 50.4271 10.06 49.5871 10.06C48.7604 10.06 48.0138 10.26 47.3471 10.66C46.6804 11.0467 46.1538 11.58 45.7671 12.26C45.3804 12.9267 45.1871 13.6867 45.1871 14.54C45.1871 15.38 45.3804 16.14 45.7671 16.82C46.1538 17.4867 46.6804 18.02 47.3471 18.42C48.0138 18.8067 48.7604 19 49.5871 19ZM54.5671 20C54.3938 20 54.2471 19.9467 54.1271 19.84C54.0204 19.72 53.9671 19.5733 53.9671 19.4V15.74L54.3471 14.54H55.1671V19.4C55.1671 19.5733 55.1138 19.72 55.0071 19.84C54.9004 19.9467 54.7538 20 54.5671 20ZM59.9959 20C59.8625 20 59.7425 19.9667 59.6359 19.9C59.5425 19.8333 59.4759 19.74 59.4359 19.62L56.1959 9.92C56.1425 9.62667 56.1559 9.41333 56.2359 9.28C56.3159 9.13333 56.4559 9.06 56.6559 9.06C56.7625 9.06 56.8692 9.09333 56.9759 9.16C57.0825 9.21333 57.1625 9.3 57.2159 9.42L60.1759 18.34H59.9159L62.6359 9.54C62.6759 9.39333 62.7492 9.28 62.8559 9.2C62.9625 9.10667 63.0892 9.06 63.2359 9.06C63.3825 9.06 63.5025 9.10667 63.5959 9.2C63.7025 9.28 63.7825 9.39333 63.8359 9.54L66.6359 18.34H66.2759L69.2359 9.42C69.3425 9.18 69.5292 9.06 69.7959 9.06C70.0359 9.06 70.1959 9.15333 70.2759 9.34C70.3692 9.52667 70.3692 9.72 70.2759 9.92L67.0559 19.62C67.0159 19.74 66.9425 19.8333 66.8359 19.9C66.7425 19.9667 66.6225 20 66.4759 20C66.3425 20 66.2225 19.9667 66.1159 19.9C66.0092 19.8333 65.9425 19.74 65.9159 19.62L63.0559 10.74H63.3159L60.5559 19.62C60.5025 19.7533 60.4225 19.8533 60.3159 19.92C60.2225 19.9733 60.1159 20 59.9959 20ZM76.9857 20.1C75.9324 20.1 74.9924 19.8667 74.1657 19.4C73.3524 18.92 72.7124 18.26 72.2457 17.42C71.779 16.58 71.5457 15.62 71.5457 14.54C71.5457 13.4467 71.7657 12.4867 72.2057 11.66C72.6457 10.82 73.2524 10.16 74.0257 9.68C74.799 9.2 75.6857 8.96 76.6857 8.96C77.6724 8.96 78.5457 9.19333 79.3057 9.66C80.0657 10.1133 80.659 10.7467 81.0857 11.56C81.5124 12.36 81.7257 13.2867 81.7257 14.34C81.7257 14.5133 81.6724 14.6533 81.5657 14.76C81.459 14.8533 81.319 14.9 81.1457 14.9H72.3457V13.86H81.4657L80.5857 14.52C80.6124 13.6533 80.4657 12.8867 80.1457 12.22C79.8257 11.5533 79.3657 11.0333 78.7657 10.66C78.179 10.2733 77.4857 10.08 76.6857 10.08C75.9257 10.08 75.2457 10.2733 74.6457 10.66C74.059 11.0333 73.5924 11.5533 73.2457 12.22C72.9124 12.8867 72.7457 13.66 72.7457 14.54C72.7457 15.4067 72.9257 16.1733 73.2857 16.84C73.6457 17.5067 74.1457 18.0333 74.7857 18.42C75.4257 18.7933 76.159 18.98 76.9857 18.98C77.5057 18.98 78.0257 18.8933 78.5457 18.72C79.079 18.5333 79.499 18.2933 79.8057 18C79.9124 17.8933 80.039 17.84 80.1857 17.84C80.3457 17.8267 80.479 17.8667 80.5857 17.96C80.7324 18.08 80.8057 18.2133 80.8057 18.36C80.819 18.5067 80.759 18.64 80.6257 18.76C80.199 19.1467 79.639 19.4667 78.9457 19.72C78.2657 19.9733 77.6124 20.1 76.9857 20.1ZM84.7332 13.32C84.8132 12.4667 85.0465 11.7133 85.4332 11.06C85.8199 10.3933 86.3199 9.87333 86.9332 9.5C87.5465 9.12667 88.2265 8.94 88.9732 8.94C89.4799 8.94 89.8732 9 90.1532 9.12C90.4332 9.24 90.5399 9.45333 90.4732 9.76C90.4332 9.96 90.3399 10.08 90.1932 10.12C90.0465 10.16 89.8665 10.1667 89.6532 10.14C89.4532 10.1 89.2265 10.08 88.9732 10.08C88.3065 10.08 87.7132 10.22 87.1932 10.5C86.6732 10.78 86.2665 11.1667 85.9732 11.66C85.6799 12.14 85.5332 12.6933 85.5332 13.32H84.7332ZM84.9332 20C84.7599 20 84.6132 19.9467 84.4932 19.84C84.3865 19.72 84.3332 19.5733 84.3332 19.4V9.66C84.3332 9.47333 84.3865 9.32667 84.4932 9.22C84.6132 9.11333 84.7599 9.06 84.9332 9.06C85.1199 9.06 85.2665 9.11333 85.3732 9.22C85.4799 9.32667 85.5332 9.47333 85.5332 9.66V19.4C85.5332 19.5733 85.4799 19.72 85.3732 19.84C85.2665 19.9467 85.1199 20 84.9332 20ZM94.1027 20C93.9294 20 93.7827 19.9467 93.6627 19.84C93.5561 19.72 93.5027 19.5733 93.5027 19.4V9.66C93.5027 9.47333 93.5561 9.32667 93.6627 9.22C93.7827 9.11333 93.9294 9.06 94.1027 9.06C94.2894 9.06 94.4361 9.11333 94.5427 9.22C94.6494 9.32667 94.7027 9.47333 94.7027 9.66V19.4C94.7027 19.5733 94.6494 19.72 94.5427 19.84C94.4361 19.9467 94.2894 20 94.1027 20ZM94.0827 6.76C93.8294 6.76 93.6094 6.67333 93.4227 6.5C93.2494 6.31333 93.1627 6.08667 93.1627 5.82C93.1627 5.51333 93.2561 5.28667 93.4427 5.14C93.6427 4.98 93.8627 4.9 94.1027 4.9C94.3294 4.9 94.5361 4.98 94.7227 5.14C94.9227 5.28667 95.0227 5.51333 95.0227 5.82C95.0227 6.08667 94.9294 6.31333 94.7427 6.5C94.5694 6.67333 94.3494 6.76 94.0827 6.76ZM103.708 20.12C102.642 20.12 101.682 19.88 100.828 19.4C99.9882 18.9067 99.3215 18.24 98.8282 17.4C98.3482 16.5467 98.1082 15.5933 98.1082 14.54C98.1082 13.4733 98.3482 12.52 98.8282 11.68C99.3215 10.8267 99.9882 10.16 100.828 9.68C101.682 9.18667 102.642 8.94 103.708 8.94C104.775 8.94 105.728 9.18667 106.568 9.68C107.408 10.16 108.068 10.8267 108.548 11.68C109.042 12.52 109.288 13.4733 109.288 14.54L108.788 15.34C108.788 16.2467 108.562 17.06 108.108 17.78C107.668 18.5 107.068 19.0733 106.308 19.5C105.548 19.9133 104.682 20.12 103.708 20.12ZM103.708 19C104.548 19 105.295 18.8067 105.948 18.42C106.615 18.02 107.135 17.4867 107.508 16.82C107.895 16.14 108.088 15.38 108.088 14.54C108.088 13.6867 107.895 12.9267 107.508 12.26C107.135 11.58 106.615 11.0467 105.948 10.66C105.295 10.26 104.548 10.06 103.708 10.06C102.882 10.06 102.135 10.26 101.468 10.66C100.802 11.0467 100.275 11.58 99.8882 12.26C99.5015 12.9267 99.3082 13.6867 99.3082 14.54C99.3082 15.38 99.5015 16.14 99.8882 16.82C100.275 17.4867 100.802 18.02 101.468 18.42C102.135 18.8067 102.882 19 103.708 19ZM108.688 20C108.515 20 108.368 19.9467 108.248 19.84C108.142 19.72 108.088 19.5733 108.088 19.4V15.74L108.468 14.54H109.288V19.4C109.288 19.5733 109.235 19.72 109.128 19.84C109.022 19.9467 108.875 20 108.688 20ZM112.502 20.32C112.209 20.32 111.962 20.22 111.762 20.02C111.576 19.8333 111.482 19.5933 111.482 19.3C111.482 19.0067 111.582 18.7667 111.782 18.58C111.982 18.3933 112.222 18.3 112.502 18.3C112.782 18.3 113.016 18.4 113.202 18.6C113.402 18.7867 113.502 19.02 113.502 19.3C113.502 19.58 113.402 19.82 113.202 20.02C113.016 20.22 112.782 20.32 112.502 20.32ZM121.146 20.12C120.106 20.12 119.173 19.8733 118.346 19.38C117.533 18.8867 116.886 18.22 116.406 17.38C115.939 16.54 115.706 15.5933 115.706 14.54C115.706 13.4733 115.926 12.52 116.366 11.68C116.806 10.84 117.413 10.18 118.186 9.7C118.959 9.20667 119.846 8.96 120.846 8.96C121.699 8.96 122.479 9.12667 123.186 9.46C123.893 9.78 124.506 10.2733 125.026 10.94C125.133 11.0733 125.173 11.2133 125.146 11.36C125.119 11.5067 125.033 11.6267 124.886 11.72C124.766 11.8133 124.633 11.8533 124.486 11.84C124.339 11.8133 124.213 11.7333 124.106 11.6C123.253 10.5867 122.166 10.08 120.846 10.08C120.059 10.08 119.366 10.2733 118.766 10.66C118.179 11.0467 117.719 11.5733 117.386 12.24C117.066 12.9067 116.906 13.6733 116.906 14.54C116.906 15.38 117.086 16.14 117.446 16.82C117.806 17.4867 118.299 18.02 118.926 18.42C119.566 18.8067 120.306 19 121.146 19C121.693 19 122.206 18.92 122.686 18.76C123.179 18.6 123.606 18.3533 123.966 18.02C124.086 17.9133 124.219 17.8533 124.366 17.84C124.513 17.8267 124.639 17.8733 124.746 17.98C124.879 18.1 124.946 18.24 124.946 18.4C124.959 18.5467 124.906 18.6733 124.786 18.78C123.813 19.6733 122.599 20.12 121.146 20.12ZM133.161 20.12C132.095 20.12 131.135 19.88 130.281 19.4C129.441 18.9067 128.775 18.24 128.281 17.4C127.801 16.5467 127.561 15.5933 127.561 14.54C127.561 13.4733 127.801 12.52 128.281 11.68C128.775 10.8267 129.441 10.16 130.281 9.68C131.135 9.18667 132.095 8.94 133.161 8.94C134.228 8.94 135.181 9.18667 136.021 9.68C136.861 10.16 137.521 10.8267 138.001 11.68C138.495 12.52 138.741 13.4733 138.741 14.54C138.741 15.5933 138.495 16.5467 138.001 17.4C137.521 18.24 136.861 18.9067 136.021 19.4C135.181 19.88 134.228 20.12 133.161 20.12ZM133.161 19C134.001 19 134.748 18.8067 135.401 18.42C136.068 18.02 136.588 17.4867 136.961 16.82C137.348 16.14 137.541 15.3733 137.541 14.52C137.541 13.68 137.348 12.9267 136.961 12.26C136.588 11.58 136.068 11.0467 135.401 10.66C134.748 10.26 134.001 10.06 133.161 10.06C132.335 10.06 131.588 10.26 130.921 10.66C130.255 11.0467 129.728 11.58 129.341 12.26C128.955 12.9267 128.761 13.6867 128.761 14.54C128.761 15.38 128.955 16.14 129.341 16.82C129.728 17.4867 130.255 18.02 130.921 18.42C131.588 18.8067 132.335 19 133.161 19Z" fill="white"/>
<path d="M16 22C20.4183 22 24 18.4183 24 14C24 9.58172 20.4183 6 16 6C11.5817 6 8 9.58172 8 14C8 18.4183 11.5817 22 16 22Z" fill="white"/>
<path d="M13.4157 17.3487C13.3429 17.0909 13.4249 16.7354 13.6106 16.5039C13.6731 16.4257 13.8006 16.2985 13.9673 16.2985H13.9856C14.107 16.3053 14.1962 16.3403 14.2512 16.4023C14.3217 16.4828 14.3154 16.5889 14.3151 16.5924C14.3131 16.6159 14.3194 16.6392 14.3329 16.6584C14.3464 16.6777 14.3663 16.6915 14.389 16.6975C14.4118 16.7034 14.4359 16.7012 14.4571 16.6911C14.4783 16.6811 14.4953 16.6638 14.5051 16.6424C14.5063 16.6398 14.6345 16.3684 14.8332 16.3898C15.0132 16.4096 15.0196 16.7607 15.0196 16.7648C15.0197 16.787 15.0272 16.8085 15.0408 16.8259C15.0545 16.8434 15.0736 16.8558 15.0951 16.8612C15.1167 16.8666 15.1393 16.8646 15.1596 16.8556C15.1799 16.8467 15.1966 16.8312 15.2071 16.8117C15.2634 16.7074 15.3976 16.7689 15.424 16.7823C15.5718 16.8573 15.7392 17.0792 15.5945 17.3832C15.3415 17.9145 14.5973 18.0082 14.3317 17.999C14.0334 17.9893 13.5363 17.7756 13.4157 17.3487ZM18.0156 16.2137C17.8932 16.2206 17.8035 16.256 17.7499 16.3192C17.6806 16.3998 17.6874 16.5067 17.6874 16.5067C17.6897 16.5301 17.6835 16.5536 17.67 16.573C17.6565 16.5923 17.6366 16.6063 17.6139 16.6124C17.5911 16.6184 17.5669 16.6162 17.5456 16.6062C17.5242 16.5961 17.5072 16.5788 17.4974 16.5573C17.4954 16.5531 17.3682 16.2826 17.1693 16.3043C16.9907 16.3243 16.9828 16.6751 16.9828 16.6793C16.9827 16.7015 16.9752 16.723 16.9615 16.7405C16.9479 16.7579 16.9288 16.7703 16.9072 16.7757C16.8857 16.7811 16.863 16.7792 16.8427 16.7702C16.8225 16.7612 16.8057 16.7457 16.7953 16.7262C16.7856 16.7075 16.7708 16.692 16.7525 16.6815C16.7343 16.671 16.7134 16.6661 16.6924 16.6671C16.6527 16.6689 16.6138 16.6792 16.5784 16.6974C16.4307 16.7724 16.2635 16.9943 16.4081 17.2979C16.6609 17.8292 17.4053 17.922 17.6709 17.9132C17.9693 17.9032 18.4667 17.6896 18.5865 17.2628C18.659 17.0046 18.5765 16.6492 18.3906 16.4174C18.326 16.3376 18.1913 16.2039 18.0156 16.2137ZM16.0399 16.031H16.044C16.2387 16.0253 16.3856 15.6681 16.4463 15.4649C16.291 15.3957 16.1351 15.2885 16.0401 15.1559C15.9421 15.2671 15.7912 15.3734 15.6457 15.4454C15.7095 15.6759 15.8593 16.031 16.0399 16.031ZM16.3484 14.6584C16.3368 14.5464 16.1851 14.4553 16.0103 14.4553C15.8354 14.4553 15.6842 14.5467 15.6718 14.6576C15.6718 14.6629 15.6707 14.6684 15.6707 14.6718C15.6707 14.7731 15.789 14.8645 15.9459 14.8843L15.9615 14.886C15.9801 14.8878 15.9953 14.8885 16.0096 14.8885C16.0488 14.8886 16.0878 14.8839 16.1259 14.8748L16.1312 14.8734L16.1343 14.8726C16.2628 14.839 16.3488 14.7584 16.3488 14.6718C16.3488 14.669 16.3488 14.6645 16.3479 14.6595L16.3484 14.6584ZM15.0218 13.9668C15.0558 13.8992 15.0832 13.8285 15.1037 13.7557C15.2263 13.3203 15.0848 12.8837 14.7832 12.6796C14.7729 12.6783 14.7624 12.6777 14.752 12.6776C14.5121 12.6776 14.3176 13.0014 14.3176 13.4007C14.3176 13.8001 14.5121 14.1239 14.752 14.1239C14.8538 14.1239 14.9476 14.0649 15.0218 13.9668ZM19.9831 15.2949C19.9562 15.3312 19.8474 15.3384 19.6228 15.2504C19.6044 15.2432 19.5844 15.2416 19.5652 15.2458C19.546 15.25 19.5284 15.2598 19.5147 15.2739C19.5011 15.288 19.4919 15.3059 19.4883 15.3252C19.4848 15.3446 19.487 15.3645 19.4948 15.3826C19.4971 15.3879 19.7224 15.9148 19.7995 16.2993C19.8118 16.3601 19.8082 16.423 19.7891 16.482C19.7699 16.541 19.7358 16.594 19.6901 16.6359C19.3551 16.9364 19.0406 17.1203 18.8079 17.1528C18.8338 16.8624 18.7363 16.5292 18.5467 16.2926C18.3937 16.102 18.2013 16.0029 18.0054 16.0139C17.8268 16.0239 17.6901 16.0824 17.5992 16.1882C17.5769 16.2141 17.5578 16.2424 17.5421 16.2728C17.4531 16.1767 17.3212 16.0865 17.1476 16.1059C16.9409 16.1298 16.8437 16.3123 16.8045 16.4876C16.712 16.4545 16.5993 16.4639 16.4881 16.5204C16.226 16.6537 16.0459 17.0017 16.2281 17.3843C16.2385 17.4062 16.2498 17.4273 16.2615 17.4481L15.7771 17.4629C15.9545 17.0824 15.7749 16.7373 15.5142 16.6049C15.4028 16.5484 15.2901 16.5392 15.1976 16.5726C15.1588 16.3979 15.061 16.2149 14.8549 16.1923C14.6813 16.1729 14.5495 16.2632 14.4603 16.3592C14.4446 16.3288 14.4255 16.3004 14.4032 16.2745C14.3121 16.1687 14.1754 16.1099 13.997 16.1001C13.8009 16.0893 13.6084 16.1884 13.4554 16.3792C13.2835 16.5926 13.1884 16.8849 13.1898 17.1534C12.9554 17.1203 12.6417 16.9371 12.3098 16.6378C12.2639 16.5958 12.2297 16.5426 12.2105 16.4834C12.1914 16.4243 12.1879 16.3612 12.2004 16.3003C12.2776 15.9174 12.5028 15.389 12.5051 15.3837C12.5128 15.3656 12.515 15.3457 12.5115 15.3264C12.5079 15.3071 12.4987 15.2892 12.485 15.2751C12.4713 15.261 12.4538 15.2513 12.4346 15.2471C12.4154 15.2429 12.3954 15.2445 12.3771 15.2517C12.1524 15.3396 12.0437 15.3323 12.0168 15.296C11.9867 15.2554 11.8867 14.9785 12.8762 13.5132C13.4074 12.726 13.9901 11.987 13.996 11.9796C14.0078 11.9648 14.0151 11.9469 14.017 11.9281C14.019 11.9093 14.0156 11.8903 14.0072 11.8734C13.9987 11.8564 13.9857 11.8422 13.9695 11.8324C13.9533 11.8226 13.9346 11.8177 13.9157 11.8181C13.461 11.8284 12.9756 11.3784 12.7718 10.9389C12.6098 10.5895 12.5878 9.94182 12.8021 9.63026C12.8959 9.49463 13.022 9.43416 13.1898 9.44573C13.6404 9.47698 13.7013 9.84463 13.7479 10.447C13.7603 10.6068 13.7731 10.7721 13.8013 10.9228C13.9313 11.6137 14.4188 11.6448 14.4395 11.6457C14.4523 11.6463 14.465 11.6445 14.4771 11.6403C16.0098 11.104 17.5035 11.6343 17.5184 11.6403C17.5308 11.6448 17.544 11.6468 17.5573 11.6462C17.5779 11.6453 18.0649 11.6137 18.1953 10.9234C18.2237 10.7731 18.2365 10.6079 18.2492 10.4484C18.296 9.84479 18.3585 9.4762 18.8092 9.44573C18.9771 9.43448 19.1043 9.4951 19.1979 9.63151C19.4123 9.94401 19.3901 10.591 19.2281 10.9395C19.0235 11.379 18.5392 11.8278 18.084 11.8187C18.0651 11.8183 18.0464 11.8233 18.0302 11.8331C18.0141 11.8428 18.001 11.857 17.9926 11.874C17.9841 11.8909 17.9807 11.9099 17.9827 11.9287C17.9847 11.9476 17.9919 11.9654 18.0037 11.9803C18.0095 11.9876 18.5921 12.7267 19.1234 13.514C20.1132 14.9784 20.0132 15.2551 19.9831 15.2957V15.2949ZM16.7956 11.911C16.7971 11.924 16.8012 11.9366 16.8077 11.948C16.8141 11.9594 16.8227 11.9695 16.833 11.9775C16.8433 11.9856 16.8551 11.9916 16.8677 11.9951C16.8803 11.9986 16.8935 11.9996 16.9065 11.9981C17.1124 11.9729 17.4095 12.189 17.5067 12.2743C17.5165 12.283 17.5279 12.2896 17.5403 12.2938C17.5527 12.2981 17.5658 12.2998 17.5789 12.299C17.5919 12.2981 17.6047 12.2947 17.6165 12.289C17.6282 12.2832 17.6387 12.2752 17.6474 12.2653C17.656 12.2555 17.6626 12.2441 17.6669 12.2317C17.6711 12.2193 17.6728 12.2062 17.672 12.1931C17.6712 12.1801 17.6678 12.1673 17.662 12.1555C17.6562 12.1438 17.6482 12.1333 17.6384 12.1246C17.5959 12.0871 17.2137 11.7603 16.8824 11.8001C16.8694 11.8017 16.8568 11.8058 16.8453 11.8123C16.8338 11.8187 16.8238 11.8274 16.8157 11.8378C16.8076 11.8481 16.8016 11.86 16.7982 11.8727C16.7947 11.8854 16.7937 11.8986 16.7954 11.9117L16.7956 11.911ZM16.3174 12.8987C16.3233 12.9105 16.3314 12.921 16.3414 12.9297C16.3513 12.9383 16.3629 12.9449 16.3754 12.949C16.3879 12.9531 16.4011 12.9548 16.4143 12.9538C16.4274 12.9528 16.4402 12.9492 16.452 12.9432C16.4637 12.9372 16.4741 12.929 16.4827 12.9189C16.4912 12.9089 16.4977 12.8973 16.5017 12.8847C16.5057 12.8722 16.5072 12.8589 16.506 12.8458C16.5049 12.8327 16.5012 12.8199 16.4951 12.8082C16.3807 12.5843 16.3906 12.4373 16.3906 12.4329C16.3933 12.4066 16.3856 12.3803 16.3689 12.3597C16.3523 12.3392 16.3282 12.3261 16.3019 12.3233C16.2756 12.3205 16.2493 12.3283 16.2287 12.3449C16.2082 12.3616 16.1951 12.3857 16.1923 12.412C16.1904 12.4324 16.1748 12.6193 16.3174 12.8995V12.8987ZM15.897 12.8762C15.897 12.9026 15.9075 12.928 15.9262 12.9467C15.9449 12.9654 15.9702 12.9759 15.9967 12.9759C16.0231 12.9759 16.0485 12.9654 16.0671 12.9467C16.0858 12.928 16.0963 12.9026 16.0963 12.8762V12.401C16.0963 12.3746 16.0858 12.3492 16.0671 12.3305C16.0485 12.3119 16.0231 12.3014 15.9967 12.3014C15.9702 12.3014 15.9449 12.3119 15.9262 12.3305C15.9075 12.3492 15.897 12.3746 15.897 12.401V12.8762ZM15.5426 12.9423C15.5662 12.9543 15.5935 12.9564 15.6187 12.9483C15.6438 12.9401 15.6647 12.9223 15.6767 12.8987C15.8193 12.6185 15.8037 12.4317 15.8017 12.4114C15.8003 12.3984 15.7963 12.3859 15.7901 12.3744C15.7838 12.363 15.7753 12.3529 15.7652 12.3448C15.755 12.3367 15.7433 12.3306 15.7308 12.327C15.7183 12.3234 15.7052 12.3222 15.6923 12.3237C15.6661 12.3264 15.642 12.3393 15.6253 12.3596C15.6085 12.3799 15.6004 12.4059 15.6028 12.4321C15.6028 12.4335 15.6142 12.5812 15.4987 12.8082C15.4926 12.8199 15.489 12.8328 15.4879 12.8459C15.4868 12.859 15.4884 12.8723 15.4925 12.8848C15.4966 12.8974 15.5031 12.909 15.5117 12.919C15.5203 12.929 15.5308 12.9372 15.5426 12.9431V12.9423ZM14.1624 12.3234C14.1799 12.3432 14.2045 12.3553 14.2309 12.357C14.2572 12.3587 14.2832 12.3499 14.3031 12.3324C14.4003 12.2471 14.6974 12.031 14.9034 12.0562C14.9282 12.0568 14.9523 12.0482 14.9711 12.032C14.9899 12.0158 15.0019 11.9932 15.0049 11.9685C15.0079 11.9439 15.0016 11.9191 14.9872 11.8988C14.9729 11.8786 14.9515 11.8645 14.9273 11.8592C14.5968 11.8193 14.2138 12.1462 14.1713 12.1837C14.1516 12.2011 14.1396 12.2257 14.1379 12.252C14.1362 12.2783 14.1449 12.3042 14.1623 12.324L14.1624 12.3234ZM12.9978 16.0515L13.1912 15.6595C13.2015 15.6406 13.2078 15.6198 13.2099 15.5984C13.2119 15.577 13.2096 15.5554 13.2031 15.5349C13.1966 15.5144 13.186 15.4954 13.172 15.4791C13.1579 15.4628 13.1407 15.4495 13.1214 15.44C13.1021 15.4306 13.0811 15.4251 13.0596 15.4239C13.0382 15.4228 13.0167 15.426 12.9965 15.4333C12.9763 15.4407 12.9577 15.4521 12.942 15.4667C12.9263 15.4814 12.9138 15.4992 12.9051 15.5189L12.7117 15.9109C12.7014 15.9298 12.695 15.9505 12.693 15.972C12.6909 15.9934 12.6932 16.015 12.6997 16.0355C12.7063 16.056 12.7169 16.0749 12.7309 16.0912C12.7449 16.1075 12.7621 16.1208 12.7814 16.1303C12.8007 16.1398 12.8217 16.1453 12.8432 16.1464C12.8647 16.1476 12.8862 16.1444 12.9064 16.137C12.9266 16.1297 12.9451 16.1183 12.9608 16.1036C12.9765 16.0889 12.9891 16.0712 12.9978 16.0515ZM13.5662 15.5256C13.5282 15.5069 13.4844 15.504 13.4444 15.5176C13.4043 15.5312 13.3713 15.5601 13.3526 15.5981L13.1592 15.9901C13.1492 16.009 13.1431 16.0297 13.1413 16.0509C13.1395 16.0722 13.1419 16.0936 13.1485 16.1139C13.1551 16.1342 13.1657 16.153 13.1797 16.1691C13.1937 16.1852 13.2107 16.1984 13.2299 16.2078C13.249 16.2172 13.2699 16.2227 13.2912 16.2239C13.3125 16.2251 13.3338 16.222 13.3539 16.2148C13.374 16.2076 13.3925 16.1965 13.4082 16.182C13.4239 16.1676 13.4366 16.1501 13.4454 16.1307L13.6388 15.7387C13.6574 15.7008 13.6602 15.6571 13.6466 15.6172C13.633 15.5772 13.6042 15.5443 13.5663 15.5256H13.5662ZM14.7893 14.531C15.031 14.3678 15.2112 14.1118 15.2957 13.8104C15.4728 13.1821 15.1778 12.5473 14.6384 12.3954C14.099 12.2435 13.5156 12.6304 13.3392 13.2587C13.2543 13.5601 13.274 13.8723 13.3949 14.1378C13.5184 14.409 13.732 14.5993 13.9965 14.6737C14.0751 14.6959 14.1564 14.7071 14.2381 14.7071C14.427 14.7073 14.6167 14.6473 14.7893 14.531ZM17.3887 14.987C17.3834 14.9611 17.3682 14.9383 17.3462 14.9237C17.3242 14.909 17.2973 14.9037 17.2713 14.9089C17.2342 14.9164 17.1765 14.9021 17.1163 14.8792C17.053 14.8544 16.9921 14.8237 16.9346 14.7874C16.9124 14.7731 16.8854 14.7682 16.8595 14.7738C16.8337 14.7794 16.8111 14.7951 16.7968 14.8173C16.7825 14.8395 16.7776 14.8665 16.7832 14.8924C16.7888 14.9182 16.8044 14.9408 16.8267 14.9551C16.8744 14.9854 16.9241 15.0126 16.9754 15.0364C16.9484 15.1726 16.8846 15.3498 16.7968 15.3531C16.7341 15.3525 16.672 15.3411 16.6132 15.3195C16.6055 15.3152 16.5972 15.3119 16.5885 15.3098H16.5842C16.4015 15.2399 16.2031 15.1003 16.1562 14.9529C16.3178 14.9107 16.4332 14.8007 16.4332 14.6717C16.4331 14.6642 16.4326 14.6567 16.4317 14.6493C16.6718 14.5842 16.8342 14.4649 16.8342 14.3279C16.8342 14.1214 16.4653 13.9539 16.0101 13.9539C15.5549 13.9539 15.186 14.1214 15.186 14.3279C15.186 14.4432 15.3009 14.5467 15.4812 14.6151C15.5167 14.6276 15.5528 14.6385 15.589 14.6485C15.588 14.6563 15.5874 14.664 15.5873 14.6718C15.5873 14.8196 15.7376 14.9421 15.9354 14.9671C15.8823 15.0609 15.6753 15.2171 15.5024 15.2937C15.4938 15.296 15.4856 15.2995 15.4779 15.304C15.4346 15.3233 15.3883 15.3349 15.341 15.3381C15.2738 15.3381 15.1857 15.1873 15.1348 15.0314C15.1699 15.0021 15.2025 14.9698 15.2321 14.9349C15.2407 14.925 15.2472 14.9135 15.2513 14.901C15.2554 14.8885 15.257 14.8754 15.256 14.8623C15.255 14.8492 15.2515 14.8364 15.2455 14.8247C15.2396 14.813 15.2314 14.8026 15.2214 14.794C15.2114 14.7855 15.1999 14.779 15.1874 14.775C15.1749 14.7709 15.1617 14.7694 15.1486 14.7705C15.1355 14.7715 15.1228 14.7752 15.1111 14.7811C15.0994 14.7871 15.089 14.7954 15.0806 14.8054C15.0464 14.8463 15.0064 14.882 14.9618 14.9112L14.9587 14.9132C14.8754 14.9656 14.8134 14.9643 14.8076 14.9642C14.7814 14.9621 14.7555 14.9705 14.7355 14.9875C14.7154 15.0045 14.7029 15.0287 14.7006 15.0548C14.6983 15.081 14.7064 15.107 14.7232 15.1272C14.7399 15.1474 14.764 15.1602 14.7901 15.1628C14.7934 15.1628 14.8004 15.1635 14.8106 15.1635C14.8615 15.1626 14.9118 15.1527 14.9593 15.1345C15.0163 15.2931 15.1373 15.5373 15.3409 15.5373H15.3437C15.3826 15.5357 15.4211 15.5293 15.4584 15.5182C15.5234 15.7456 15.7017 16.2298 16.0392 16.2298H16.0496C16.3896 16.2198 16.5696 15.7487 16.6349 15.5301C16.6853 15.5433 16.737 15.5505 16.789 15.5515H16.8034C17.0354 15.5429 17.1295 15.2659 17.1651 15.1003C17.1932 15.106 17.2218 15.109 17.2506 15.1093C17.2706 15.1094 17.2906 15.1075 17.3103 15.1037C17.3231 15.1012 17.3353 15.0961 17.3462 15.0888C17.3571 15.0816 17.3665 15.0722 17.3737 15.0614C17.381 15.0505 17.3861 15.0383 17.3887 15.0254C17.3912 15.0126 17.3912 14.9994 17.3887 14.9865V14.987ZM18.5624 14.0898C18.6831 13.8251 18.7031 13.5137 18.6184 13.2131C18.5337 12.9124 18.3545 12.657 18.1135 12.4943C17.8673 12.3278 17.5865 12.277 17.3228 12.351C17.059 12.4251 16.8459 12.6149 16.7226 12.8856C16.602 13.1503 16.582 13.4617 16.6667 13.7623C16.8171 14.2973 17.2624 14.6574 17.7243 14.6573C17.8048 14.6573 17.8848 14.6463 17.9623 14.6245C18.2265 14.5501 18.4398 14.3603 18.5624 14.0898ZM18.8182 16.0429L18.5331 15.4648C18.5244 15.4451 18.5118 15.4274 18.4961 15.4127C18.4804 15.398 18.4619 15.3866 18.4417 15.3793C18.4215 15.3719 18.4 15.3687 18.3785 15.3698C18.357 15.371 18.336 15.3765 18.3167 15.386C18.2974 15.3955 18.2802 15.4088 18.2662 15.4251C18.2522 15.4414 18.2416 15.4603 18.2351 15.4808C18.2285 15.5013 18.2262 15.5229 18.2283 15.5443C18.2303 15.5657 18.2367 15.5865 18.247 15.6054L18.5321 16.1835C18.5518 16.2197 18.5847 16.2468 18.6239 16.2593C18.6631 16.2718 18.7057 16.2686 18.7426 16.2504C18.7796 16.2323 18.8081 16.2006 18.8221 16.1619C18.8362 16.1232 18.8348 16.0806 18.8182 16.0429ZM19.3026 15.9335L19.0174 15.3554C18.9978 15.3193 18.9649 15.2921 18.9256 15.2796C18.8864 15.2672 18.8439 15.2703 18.8069 15.2885C18.77 15.3067 18.7415 15.3384 18.7274 15.3771C18.7133 15.4157 18.7147 15.4584 18.7313 15.496L19.0165 16.0742C19.0362 16.1103 19.0691 16.1375 19.1083 16.1499C19.1475 16.1624 19.1901 16.1592 19.227 16.1411C19.2639 16.1229 19.2924 16.0912 19.3065 16.0525C19.3206 16.0138 19.3192 15.9712 19.3026 15.9335ZM17.2343 12.6774C17.1685 12.6786 17.105 12.7017 17.0537 12.7429C16.904 12.8571 16.7999 13.1085 16.7999 13.4006C16.7999 13.6384 16.8688 13.8493 16.9753 13.981C17.0476 14.0706 17.1371 14.1237 17.2343 14.1237C17.4742 14.1237 17.6687 13.7999 17.6687 13.4006C17.6687 13.0012 17.4738 12.6774 17.2343 12.6774Z" fill="#FFA401"/>
</svg>
